<?xml version="1.0" encoding="UTF-8" standalone="no"?>
<!-- Created with Inkscape (http://www.inkscape.org/) -->

<svg
   width="106.06276mm"
   height="82.804924mm"
   viewBox="0 0 106.06276 82.804924"
   version="1.1"
   id="svg1"
   xml:space="preserve"
   inkscape:version="1.3.2 (091e20e, 2023-11-25)"
   sodipodi:docname="drawing.svg"
   xmlns:inkscape="http://www.inkscape.org/namespaces/inkscape"
   xmlns:sodipodi="http://sodipodi.sourceforge.net/DTD/sodipodi-0.dtd"
   xmlns="http://www.w3.org/2000/svg"
   xmlns:svg="http://www.w3.org/2000/svg"><sodipodi:namedview
     id="namedview1"
     pagecolor="#ffffff"
     bordercolor="#000000"
     borderopacity="0.25"
     inkscape:showpageshadow="2"
     inkscape:pageopacity="0.0"
     inkscape:pagecheckerboard="0"
     inkscape:deskcolor="#d1d1d1"
     inkscape:document-units="mm"
     inkscape:zoom="2.1179849"
     inkscape:cx="169.26466"
     inkscape:cy="171.86147"
     inkscape:window-width="2040"
     inkscape:window-height="1207"
     inkscape:window-x="2508"
     inkscape:window-y="25"
     inkscape:window-maximized="0"
     inkscape:current-layer="layer1" /><defs
     id="defs1" /><g
     inkscape:label="Layer 1"
     inkscape:groupmode="layer"
     id="layer1"
     transform="translate(-20.694961,-156.20162)"><path
       style="fill:#000000"
       d="m 124.24332,164.51928 c -0.14326,-0.0322 -0.31908,-0.10031 -0.39071,-0.15126 -0.0716,-0.051 -0.33535,-0.13186 -0.58605,-0.1798 -0.2507,-0.0479 -0.51443,-0.12785 -0.58606,-0.17758 -0.0716,-0.0497 -0.42326,-0.12914 -0.7814,-0.17644 -0.35815,-0.0473 -0.8563,-0.16918 -1.107,-0.27082 -0.2507,-0.10164 -0.60787,-0.19044 -0.79372,-0.19732 -0.18585,-0.007 -0.42027,-0.0745 -0.52094,-0.15036 -0.10067,-0.0758 -0.35885,-0.16738 -0.57374,-0.20349 -0.93905,-0.15777 -2.54425,-0.5569 -2.73492,-0.68003 -0.0716,-0.0463 -0.55492,-0.14873 -1.07397,-0.22771 -0.51906,-0.079 -0.97671,-0.19244 -1.01701,-0.25214 -0.0403,-0.0597 -0.16957,-0.10854 -0.28729,-0.10854 -0.11771,0 -0.40728,-0.1715 -0.64348,-0.38111 -0.32,-0.28397 -0.42947,-0.33063 -0.42947,-0.18305 0,0.33217 -0.43154,0.44754 -1.32212,0.35343 -1.0112,-0.10686 -10.6875,-0.0935 -12.222262,0.0168 -0.608846,0.0438 -1.400021,0.10411 -1.758165,0.13408 -0.358145,0.03 -1.120017,0.0836 -1.693049,0.11921 -1.699731,0.10558 -5.226819,0.4364 -7.162896,0.67184 -1.190514,0.14477 -1.282794,0.16074 -1.438789,0.24901 -0.07253,0.041 -0.540339,0.0864 -1.039586,0.10072 -0.499247,0.0144 -1.014027,0.0759 -1.143957,0.13668 -0.156554,0.0733 -0.299318,0.0627 -0.423262,-0.0315 -0.143051,-0.1087 -0.230234,-0.10928 -0.370784,-0.002 -0.127783,0.0971 -0.209866,0.10096 -0.269468,0.0127 -0.04714,-0.0698 -0.146812,-0.0924 -0.221491,-0.0501 -0.230595,0.13049 -4.529706,0.11799 -4.582723,-0.0133 -0.0296,-0.0733 -0.161645,-0.0577 -0.342768,0.0406 -0.375238,0.2036 -1.868844,-1.05621 -2.009127,-1.69463 -0.0957,-0.43555 0.16915,-2.10206 0.334071,-2.10206 0.0618,0 0.112367,-0.11306 0.112367,-0.25124 0,-0.17434 0.0598,-0.23023 0.195352,-0.18261 0.134978,0.0474 0.195351,-0.008 0.195351,-0.17886 0,-0.18143 0.0576,-0.22725 0.215815,-0.17167 0.129535,0.0455 0.428911,-0.0547 0.748848,-0.25074 0.293169,-0.17961 0.620942,-0.32872 0.728386,-0.33136 0.107443,-0.003 0.214079,-0.12552 0.236968,-0.27308 0.04503,-0.29031 0.212811,-0.35094 0.361523,-0.13063 0.06149,0.0911 0.03525,0.10503 -0.07755,0.0412 -0.110413,-0.0625 -0.138976,-0.0498 -0.08107,0.036 0.126329,0.18715 0.47024,0.0395 0.384498,-0.16509 -0.04365,-0.10416 0.01242,-0.169 0.146144,-0.169 0.119334,0 0.181166,0.053 0.137404,0.11788 -0.04563,0.0676 0.0066,0.0876 0.122548,0.0469 0.111164,-0.0391 0.202116,-0.14576 0.202116,-0.23712 0,-0.0914 0.08791,-0.1661 0.195352,-0.1661 0.107443,0 0.195351,0.0837 0.195351,0.1859 0,0.10224 0.05018,0.1575 0.111515,0.12279 0.06133,-0.0347 0.358976,-0.0916 0.661428,-0.12636 0.856662,-0.0985 1.226124,-0.19877 1.480887,-0.40172 0.188399,-0.15009 0.284371,-0.15925 0.482342,-0.046 0.13593,0.0777 0.276866,0.0973 0.313191,0.0435 0.03633,-0.0538 0.346721,-0.10942 0.689769,-0.12356 1.165901,-0.0481 1.40499,-0.0717 1.539953,-0.15246 0.07415,-0.0444 0.484391,-0.0869 0.911641,-0.0946 5.220409,-0.0937 6.093526,-0.0861 7.288543,0.0634 0.71629,0.0896 1.577262,0.16483 1.913273,0.16719 0.33601,0.002 0.644149,0.0535 0.684754,0.11366 0.04445,0.0659 0.258318,0.0627 0.537507,-0.008 0.287804,-0.0728 0.522059,-0.075 0.61759,-0.006 0.08465,0.0612 0.505544,0.1438 0.935317,0.1836 0.854343,0.0791 2.007003,0.23226 3.320983,0.44124 0.46559,0.074 1.05164,0.15701 1.30234,0.18437 0.2507,0.0274 0.74885,0.10248 1.107,0.16695 0.35814,0.0645 1.09071,0.17692 1.62793,0.2499 0.53721,0.073 1.25149,0.20791 1.58728,0.29985 0.33579,0.0919 0.78328,0.16716 0.99443,0.16716 0.21115,0 0.55177,0.0802 0.75694,0.17813 0.20516,0.098 0.50874,0.17845 0.67462,0.17886 0.16587,4e-4 0.41564,0.0566 0.55504,0.12492 0.13939,0.0683 0.64834,0.18954 1.13099,0.2694 0.76062,0.12586 0.88323,0.18182 0.92025,0.42002 0.0406,0.26098 0.0583,0.26544 0.35292,0.0887 0.22265,-0.13357 0.39442,-0.15526 0.60847,-0.0768 0.16403,0.0601 0.62057,0.19943 1.01453,0.30962 0.39396,0.1102 1.08013,0.35598 1.52483,0.54618 0.44469,0.1902 0.89171,0.34581 0.99337,0.34581 0.10166,0 0.25779,0.0805 0.34696,0.17886 0.0892,0.0984 0.26499,0.17886 0.3907,0.17886 0.12572,0 0.30154,0.0805 0.39071,0.17886 0.0892,0.0984 0.25109,0.17887 0.35982,0.17887 0.184,0 1.14882,0.36994 1.59369,0.61107 0.10745,0.0582 0.28326,0.13724 0.39071,0.17556 0.10744,0.0383 0.34186,0.12565 0.52094,0.19406 0.17907,0.0684 0.44279,0.16156 0.58605,0.207 0.14326,0.0455 0.52419,0.19939 0.84653,0.3421 0.32233,0.14271 0.639,0.25933 0.70372,0.25914 0.0647,-1.8e-4 0.43022,0.13505 0.81223,0.30052 1.33171,0.57681 1.02252,1.36591 -0.40896,1.04376 z m 0.84652,-0.33242 c 0,-0.0831 -2.36233,-1.06764 -3.58145,-1.4926 -0.14326,-0.0499 -0.6414,-0.25482 -1.10699,-0.4553 -0.46559,-0.20047 -1.00529,-0.39916 -1.19933,-0.44153 -0.19404,-0.0424 -0.42099,-0.15226 -0.50432,-0.2442 -0.0833,-0.0919 -0.21987,-0.16716 -0.30339,-0.16716 -0.0835,0 -0.38178,-0.10731 -0.66277,-0.23848 -0.28099,-0.13116 -0.61225,-0.23848 -0.73614,-0.23848 -0.12388,0 -0.25726,-0.0474 -0.29639,-0.10539 -0.27855,-0.41266 -2.64874,-1.02968 -3.15081,-0.82023 -1.10201,0.45972 -0.12475,1.46566 1.7174,1.76778 0.79383,0.13019 1.58442,0.339 1.81477,0.47931 0.0716,0.0436 0.41189,0.11667 0.75613,0.1623 0.34425,0.0456 0.9596,0.18523 1.36746,0.31021 0.40786,0.12499 0.84696,0.22856 0.97577,0.23018 0.12881,0.002 0.46527,0.10514 0.74768,0.23007 0.28242,0.12493 0.80697,0.26411 1.16568,0.30928 0.3587,0.0452 0.68502,0.13075 0.72514,0.19019 0.0401,0.0594 0.20135,0.1084 0.35829,0.10881 0.15694,4e-4 0.4526,0.0806 0.65704,0.17822 0.20443,0.0976 0.42015,0.15008 0.47938,0.11657 0.0592,-0.0335 0.14449,-0.006 0.18948,0.0602 0.0824,0.12202 0.58737,0.17378 0.58737,0.0602 z M 86.084613,162.3854 c 0.929533,-0.0578 1.363511,-0.11088 1.627931,-0.19929 0.107443,-0.0359 0.546985,-0.0965 0.976758,-0.13453 0.429774,-0.0381 1.484673,-0.15377 2.344221,-0.25713 2.174879,-0.26152 2.593334,-0.29616 4.883793,-0.40425 1.110249,-0.0524 2.516781,-0.14184 3.125628,-0.19875 1.172256,-0.10958 11.286656,-0.14506 12.502506,-0.0439 l 0.71629,0.0596 0.0677,-0.61612 c 0.0376,-0.34214 0.16891,-0.7185 0.29528,-0.84635 0.22195,-0.22455 0.2026,-0.23514 -0.784,-0.42916 -0.55636,-0.10941 -1.21669,-0.24871 -1.46739,-0.30955 -0.2507,-0.0608 -0.71955,-0.17285 -1.04188,-0.24892 -0.32233,-0.0761 -0.87116,-0.21322 -1.21962,-0.3048 -0.34846,-0.0916 -0.81731,-0.16777 -1.04188,-0.16934 -0.22457,-0.002 -0.64273,-0.0559 -0.92924,-0.12076 -0.28652,-0.0649 -0.98978,-0.1745 -1.56282,-0.24364 -1.31828,-0.15906 -1.39157,-0.17075 -1.62793,-0.25978 -0.10744,-0.0405 -0.7228,-0.12873 -1.36746,-0.19614 -0.64466,-0.0674 -1.787467,-0.20248 -2.539571,-0.30014 -0.752104,-0.0977 -1.472834,-0.14874 -1.601622,-0.11349 -0.128788,0.0352 -0.304605,0.0123 -0.390704,-0.0511 -0.0861,-0.0633 -0.859809,-0.15381 -1.719357,-0.20104 -0.859548,-0.0472 -1.797236,-0.11346 -2.083752,-0.14718 -2.823373,-0.33229 -10.893657,0.39943 -13.023448,1.18082 -0.358145,0.1314 -0.767329,0.27028 -0.909298,0.30862 -0.14197,0.0383 -0.317786,0.11524 -0.390704,0.1709 -0.07292,0.0557 -0.450482,0.30102 -0.839033,0.54525 -0.394302,0.24784 -0.722289,0.54943 -0.742288,0.68254 -0.01971,0.13116 -0.0935,0.47994 -0.163974,0.77506 -0.274092,1.14774 0.33297,1.82452 1.938304,2.16092 0.416225,0.0872 5.096774,0.0278 6.967545,-0.0884 z"
       id="path134" /><path
       style="fill:#000000"
       d="m 122.59368,176.08249 c -0.0462,-0.0951 -0.81184,-0.50677 -0.94259,-0.50677 -0.0427,0 -0.0776,0.0805 -0.0776,0.17886 0,0.0984 -0.0845,0.17886 -0.18766,0.17886 -0.29586,0 -0.36181,-0.21153 -0.10811,-0.34676 0.1413,-0.0753 0.16447,-0.12435 0.0598,-0.12657 -0.094,-0.002 -0.50421,-0.14302 -0.91164,-0.3134 -1.371,-0.5733 -1.56096,-0.64415 -1.72697,-0.64415 -0.091,0 -0.25793,-0.0717 -0.37102,-0.15929 -0.167,-0.12938 -1.15337,-0.51253 -2.48471,-0.96518 -0.10744,-0.0365 -0.28326,-0.11672 -0.3907,-0.17821 -0.34574,-0.19784 -2.45491,-1.08213 -2.58105,-1.08213 -0.0671,0 -0.19181,-0.077 -0.27716,-0.1712 -0.0853,-0.0942 -0.32205,-0.20475 -0.52601,-0.24577 -0.53543,-0.10767 -0.67796,-1.08124 -0.23271,-1.58956 0.0911,-0.10406 -0.0394,-0.0572 -0.29011,0.10409 -1.2046,0.77508 -1.69098,0.96524 -2.16604,0.84688 -0.56481,-0.14071 -14.464702,-0.0154 -15.415611,0.13904 -0.250701,0.0407 -0.866059,0.10265 -1.367462,0.13767 -1.27399,0.089 -2.919231,0.28149 -4.297738,0.50291 -0.644661,0.10354 -1.465138,0.21232 -1.823283,0.24173 -0.358145,0.0294 -0.706847,0.1028 -0.774895,0.16308 -0.06805,0.0603 -0.548084,0.10961 -1.066748,0.10961 -0.518664,0 -0.970196,0.0402 -1.003404,0.0894 -0.172748,0.25587 -4.57023,0.0755 -5.156173,-0.21146 -0.317821,-0.15566 -0.728059,-0.27305 -0.911642,-0.26086 -0.476635,0.0316 -0.98256,-1.32194 -0.85192,-2.27927 0.09392,-0.68829 1.73175,-2.46518 2.272248,-2.46518 0.127945,0 0.305585,-0.0805 0.394755,-0.17886 0.08917,-0.0984 0.252897,-0.17886 0.363837,-0.17886 0.11094,0 0.294953,-0.0773 0.408919,-0.1717 0.113965,-0.0944 0.558121,-0.2303 0.987013,-0.30192 1.583978,-0.26454 2.478765,-0.44071 2.701053,-0.53178 0.125511,-0.0514 0.370517,-0.0608 0.544459,-0.0208 0.173941,0.04 0.463326,0.0215 0.643078,-0.0411 0.367702,-0.128 1.454326,-0.23075 2.621531,-0.2479 1.351147,-0.0199 5.709685,0.11982 6.186137,0.19824 0.250702,0.0413 0.602335,0.0868 0.781407,0.1012 0.179073,0.0144 0.882339,0.0917 1.562814,0.17186 0.680475,0.0801 1.47165,0.1624 1.758166,0.18282 1.026099,0.0731 4.143329,0.56668 7.229349,1.14459 0.68121,0.12756 1.36006,0.23194 1.50855,0.23194 0.14849,0 0.30883,0.0356 0.3563,0.079 0.0475,0.0435 0.27163,0.0976 0.49813,0.1203 0.22651,0.0227 0.4899,0.1006 0.58531,0.1731 0.0954,0.0725 0.55497,0.15985 1.02126,0.19412 0.46628,0.0343 0.84779,0.10476 0.84779,0.15664 0,0.0519 0.5421,0.20936 1.20467,0.34994 1.33317,0.28288 1.72541,0.4753 1.63243,0.80084 -0.0526,0.18405 0.008,0.20938 0.41828,0.1736 0.37289,-0.0326 0.782,0.0951 1.83553,0.57278 1.85839,0.84259 2.10685,0.96457 2.33857,1.14813 0.11081,0.0878 0.49174,0.30078 0.84652,0.47334 0.35479,0.17255 0.67437,0.34849 0.71018,0.39096 0.10916,0.12946 0.89483,0.61381 0.99566,0.61381 0.052,0 0.36207,0.20278 0.68901,0.45063 0.32694,0.24786 0.77025,0.55256 0.98514,0.67713 0.6341,0.36758 1.8884,1.51555 1.8884,1.72831 0,0.37062 -0.78399,0.70092 -0.93335,0.39323 z m 0.54264,-0.361 c 0,-0.13819 -1.443,-1.27499 -1.8906,-1.48943 -0.21367,-0.10236 -0.59046,-0.3785 -0.83731,-0.61363 -0.24685,-0.23514 -0.55107,-0.42752 -0.67604,-0.42752 -0.12498,0 -0.26493,-0.0558 -0.31099,-0.12407 -0.14644,-0.21695 -1.79231,-1.17296 -2.74203,-1.59273 -0.22059,-0.0975 -0.47684,-0.26086 -0.56944,-0.36302 -0.0926,-0.10216 -0.27495,-0.18575 -0.40521,-0.18575 -0.13026,0 -0.26847,-0.0468 -0.30712,-0.10412 -0.10876,-0.16111 -1.39359,-0.69436 -1.86056,-0.7722 -0.7838,-0.13064 -1.40423,0.24613 -1.54125,0.93594 -0.0482,0.24245 1.33899,1.01355 1.8233,1.01355 0.11046,0 0.20084,0.05 0.20084,0.1112 0,0.0612 0.13186,0.14592 0.29303,0.18834 0.33573,0.0884 0.68512,0.22556 2.05119,0.80534 0.53722,0.22801 1.29909,0.51536 1.69305,0.63857 0.39396,0.12321 0.74939,0.26476 0.78984,0.31455 0.0404,0.0498 0.38063,0.18955 0.75595,0.31057 0.37532,0.12102 0.74953,0.28149 0.83158,0.35661 0.082,0.0751 0.24295,0.13659 0.35755,0.13659 0.11461,0 0.26405,0.0442 0.3321,0.0982 0.068,0.054 0.49001,0.22746 0.93769,0.38547 0.44768,0.158 0.81396,0.32845 0.81396,0.37877 0,0.0503 0.0586,0.0915 0.13024,0.0915 0.0716,0 0.13023,-0.0417 0.13023,-0.0927 z m -38.314009,-3.82176 c 0.121234,-0.0549 0.440747,-0.1105 0.710028,-0.12358 0.269281,-0.0131 0.767428,-0.0806 1.106993,-0.15004 0.339565,-0.0694 0.887379,-0.14626 1.217365,-0.17072 0.329986,-0.0245 0.945344,-0.10225 1.367462,-0.17288 0.422119,-0.0706 1.060516,-0.15257 1.418661,-0.18207 0.358144,-0.0295 1.149319,-0.11106 1.758165,-0.18124 1.558539,-0.17965 3.941408,-0.2408 11.303165,-0.29005 l 6.41936,-0.0429 0.6133,-0.35975 c 0.33731,-0.19786 0.87702,-0.46342 1.19935,-0.59015 l 0.58605,-0.23041 -0.52093,-0.12825 c -0.28652,-0.0705 -0.81397,-0.1925 -1.17212,-0.27102 -0.35814,-0.0785 -0.76838,-0.19902 -0.91164,-0.26779 -0.14325,-0.0688 -0.52419,-0.16374 -0.84652,-0.21105 -0.32233,-0.0473 -0.96699,-0.17187 -1.43258,-0.2768 -2.45498,-0.55328 -8.333322,-1.54301 -9.897821,-1.66648 -1.544903,-0.12192 -2.433893,-0.21764 -2.60469,-0.28044 -0.605277,-0.22255 -8.288314,-0.39896 -9.453454,-0.21706 -0.292815,0.0457 -0.790962,0.10577 -1.106993,0.13344 -1.555609,0.13625 -3.739597,0.63312 -4.66017,1.06023 -0.362632,0.16825 -0.729096,0.3059 -0.814364,0.3059 -0.352785,0 -1.936682,1.66327 -1.961196,2.05947 -0.05836,0.94321 0.20561,1.65922 0.66503,1.80389 0.112922,0.0356 0.293221,0.11153 0.400665,0.16883 0.688851,0.36732 0.92732,0.43998 1.627931,0.49605 0.982471,0.0786 4.693648,-0.0814 4.988953,-0.21508 z"
       id="path130" /><path
       style="fill:#000000"
       d="m 121.57351,187.19208 c -0.32233,-0.0998 -0.82048,-0.2813 -1.10699,-0.40322 -1.43296,-0.60976 -2.29049,-0.95475 -3.06051,-1.23127 -1.30326,-0.468 -1.35307,-0.48395 -1.58282,-0.50679 -0.11844,-0.0118 -0.41838,-0.13631 -0.66654,-0.27673 -0.24816,-0.14042 -0.5158,-0.25531 -0.59476,-0.25531 -0.079,0 -0.46387,-0.13415 -0.85536,-0.2981 -0.39149,-0.16396 -0.89138,-0.2981 -1.11085,-0.2981 -0.21948,0 -0.39905,-0.0406 -0.39905,-0.0901 0,-0.0496 -0.19047,-0.16139 -0.42327,-0.24848 -0.23279,-0.0871 -0.56977,-0.21316 -0.74884,-0.28014 -1.30805,-0.48933 -1.69305,-0.73664 -1.69305,-1.08758 0,-0.22856 -0.0105,-0.22977 -0.25295,-0.0289 -0.22743,0.18845 -0.67087,0.21441 -4.39541,0.25735 -2.27836,0.0263 -4.55271,0.10349 -5.054111,0.17159 -0.501403,0.0681 -1.409788,0.17959 -2.018635,0.24775 -1.509371,0.16895 -1.483502,0.16489 -1.649658,0.25891 -0.08106,0.0459 -0.384911,0.0749 -0.675224,0.0645 -0.290313,-0.0104 -0.617787,0.0494 -0.72772,0.13295 -0.114021,0.0866 -0.336576,0.12047 -0.518117,0.0787 -0.44374,-0.10197 -1.003297,0.10851 -0.905949,0.34078 0.05361,0.12792 -0.0045,0.18268 -0.193752,0.18268 -0.186774,0 -0.247148,-0.0553 -0.195352,-0.17886 0.08907,-0.21252 -0.343417,-0.25058 -0.562981,-0.0496 -0.07768,0.0711 -0.807317,0.15641 -1.621419,0.18953 -1.163689,0.0473 -1.518741,0.10256 -1.6605,0.25822 -0.165696,0.18195 -0.173607,0.18028 -0.09759,-0.0206 0.05547,-0.14659 0.02905,-0.20062 -0.08015,-0.16396 -0.08958,0.0301 -0.151493,0.10609 -0.137572,0.16892 0.01521,0.0686 -0.20567,0.0821 -0.553497,0.0338 -0.318343,-0.0442 -0.578806,-0.039 -0.578806,0.0116 0,0.0506 -0.175817,0.0459 -0.390704,-0.0106 -0.218203,-0.0573 -0.390703,-0.0573 -0.390703,0 0,0.0573 -0.1725,0.0573 -0.390704,0 -0.257637,-0.0677 -0.390703,-0.0598 -0.390703,0.0229 0,0.075 -0.08266,0.0627 -0.205278,-0.0305 -0.16259,-0.12355 -0.226103,-0.12513 -0.305426,-0.008 -0.145425,0.21544 -5.750451,0.11411 -6.066137,-0.10966 -0.07163,-0.0508 -0.350653,-0.13004 -0.620052,-0.17613 -0.2694,-0.0461 -0.521932,-0.13138 -0.561183,-0.18953 -0.03925,-0.0581 -0.170466,-0.10742 -0.291589,-0.10949 -0.319631,-0.005 -0.912405,-0.52259 -1.010895,-0.88188 -0.04659,-0.16996 -0.136821,-0.3385 -0.200515,-0.37454 -0.191528,-0.10838 -0.133724,-1.29584 0.0754,-1.54899 0.105166,-0.1273 0.193074,-0.30882 0.195352,-0.40339 0.005,-0.20744 1.000463,-1.08009 1.232105,-1.08009 0.09034,0 0.268983,-0.10596 0.396994,-0.23547 0.128011,-0.12951 0.503379,-0.3491 0.83415,-0.48796 0.330772,-0.13887 0.835825,-0.35043 1.122341,-0.47012 0.593232,-0.24784 2.638431,-0.73182 3.320979,-0.78589 0.250702,-0.0199 0.66094,-0.0637 0.911642,-0.0975 1.839044,-0.24778 10.149819,-0.331 11.590869,-0.11607 0.32233,0.0481 0.966991,0.10016 1.432579,0.11573 1.282891,0.0429 3.659971,0.28394 4.119721,0.41773 0.22442,0.0653 0.45884,0.10712 0.52094,0.0929 0.27037,-0.0618 2.66321,0.17446 2.72725,0.26932 0.11713,0.17352 0.86768,0.12996 0.76028,-0.0441 -0.0506,-0.082 0.0276,-0.0368 0.17364,0.10048 0.21403,0.20107 0.4896,0.26438 1.41917,0.32603 0.63447,0.0421 1.3587,0.13122 1.6094,0.1981 0.2507,0.0669 0.82152,0.14743 1.26849,0.17899 0.44696,0.0316 0.91581,0.1087 1.04187,0.1714 0.12607,0.0627 0.75666,0.16955 1.40132,0.23742 1.57,0.16529 2.69204,0.35521 2.86212,0.48445 0.0768,0.0583 0.37258,0.13348 0.65736,0.16701 0.28479,0.0335 1.01594,0.14646 1.62478,0.25097 0.60885,0.1045 1.22421,0.20941 1.36747,0.23312 0.14325,0.0237 0.53574,0.12278 0.87219,0.22017 0.33645,0.0974 0.63783,0.15317 0.66973,0.12396 0.0319,-0.0292 0.40129,0.0322 0.82086,0.13643 0.41956,0.10425 0.98261,0.24373 1.25122,0.30995 0.35098,0.0865 0.48838,0.18537 0.48838,0.35134 0,0.26228 -0.56859,0.65497 -0.77733,0.53686 -0.0757,-0.0428 -0.50315,-0.10405 -0.94992,-0.13603 -0.44678,-0.032 -1.16395,-0.10282 -1.59373,-0.15739 -1.74419,-0.22147 -8.9485,-0.11315 -8.70725,0.13092 0.11949,0.1209 0.29688,0.21981 0.3942,0.21981 0.16207,0 0.44097,0.11013 0.9548,0.37701 0.10745,0.0558 0.28326,0.13282 0.39071,0.17114 0.10744,0.0383 0.31256,0.1136 0.45582,0.16729 0.14326,0.0537 0.34838,0.13001 0.45582,0.16959 0.10744,0.0396 0.45169,0.20448 0.76499,0.36644 0.31331,0.16195 0.61435,0.26916 0.66898,0.23825 0.0546,-0.0309 0.17059,0.0224 0.25769,0.11849 0.18221,0.20102 1.73686,0.89584 2.00442,0.89584 0.0985,0 0.25202,0.0805 0.34119,0.17886 0.0892,0.0984 0.25751,0.17958 0.37409,0.18046 0.11658,8.7e-4 0.79802,0.26845 1.51431,0.5946 0.71629,0.32616 1.36842,0.59373 1.44919,0.59461 0.0808,8.8e-4 0.2198,0.0821 0.30897,0.18046 0.0892,0.0984 0.26308,0.17886 0.38647,0.17886 0.30522,0 0.68852,0.40984 0.63294,0.67676 -0.0592,0.28442 -0.42643,0.31275 -1.14964,0.0887 z m 0.26047,-0.46445 c -0.17907,-0.0948 -0.4135,-0.20705 -0.52094,-0.24936 -0.10744,-0.0423 -0.57629,-0.24104 -1.04188,-0.44163 -0.94292,-0.40625 -1.63227,-0.68896 -2.40933,-0.98811 -0.28652,-0.11031 -1.28281,-0.53777 -2.21399,-0.94993 -3.43663,-1.52111 -3.77899,-1.66507 -3.88433,-1.63332 -0.0591,0.0178 -0.28341,-0.10309 -0.49837,-0.2687 -0.52002,-0.40064 -2.00987,-0.29808 -1.52897,0.10524 0.1517,0.12723 1.80431,0.76989 2.15843,0.83936 0.22784,0.0447 0.48409,0.1583 0.56944,0.25246 0.0854,0.0942 0.2353,0.1712 0.33322,0.1712 0.19399,0 1.6229,0.49158 2.46844,0.8492 0.29122,0.12318 0.59969,0.22396 0.68549,0.22396 0.0858,0 0.25777,0.0483 0.38215,0.10734 0.12438,0.059 0.63638,0.25471 1.13778,0.43482 0.50141,0.18012 1.08746,0.39436 1.30235,0.4761 0.21488,0.0817 0.47861,0.18084 0.58605,0.22024 0.10745,0.0394 0.28326,0.12116 0.39071,0.1817 0.10744,0.0605 0.41659,0.19819 0.687,0.30588 0.2704,0.10769 0.68064,0.27103 0.91164,0.36298 0.55546,0.2211 0.9023,0.22151 0.48511,5.7e-4 z m -35.68425,-2.93002 c 3.645797,-0.20945 6.211963,-0.47596 6.902428,-0.71685 0.179072,-0.0625 0.765127,-0.16684 1.302344,-0.23193 1.829356,-0.22164 2.92933,-0.34934 3.581449,-0.41578 0.358144,-0.0365 1.036935,-0.11555 1.508423,-0.1757 1.133946,-0.14465 4.222386,-0.25424 6.914086,-0.24532 l 2.17125,0.007 0.62879,-0.38979 0.62879,-0.38978 5.09543,-0.0288 c 3.00383,-0.017 5.24912,0.0182 5.46985,0.0858 0.46269,0.14158 2.59942,0.23866 2.36775,0.10757 -0.0923,-0.0522 -0.47677,-0.1303 -0.85438,-0.1735 -0.37762,-0.0432 -0.71915,-0.1268 -0.75897,-0.18579 -0.0398,-0.059 -0.12706,-0.0763 -0.19387,-0.0385 -0.0668,0.0378 -0.5512,-0.0392 -1.07641,-0.17113 -0.52522,-0.13192 -1.31628,-0.29613 -1.75793,-0.36489 -0.44164,-0.0688 -1.15845,-0.18042 -1.59291,-0.24813 -0.43446,-0.0677 -0.88865,-0.17118 -1.00932,-0.22995 -0.26235,-0.12777 -1.57491,-0.37681 -2.30314,-0.43699 -0.90996,-0.0752 -1.68673,-0.1768 -1.8884,-0.247 -0.10745,-0.0374 -0.40048,-0.0887 -0.65118,-0.11406 -0.2507,-0.0253 -0.8999,-0.12712 -1.44267,-0.2262 -0.54278,-0.0991 -1.48046,-0.22912 -2.08376,-0.28899 -0.60329,-0.0599 -1.38992,-0.16935 -1.74806,-0.24328 -0.35815,-0.0739 -0.8563,-0.15423 -1.107,-0.17842 -0.2507,-0.0242 -0.89536,-0.0968 -1.43258,-0.16136 -5.082907,-0.61089 -6.159029,-0.6723 -11.7211,-0.66885 -7.188886,0.005 -10.381146,0.50538 -12.284592,1.92768 -0.202475,0.15129 -0.440052,0.27508 -0.527949,0.27508 -0.511585,0 -1.324303,1.28825 -1.272993,2.01785 0.137236,1.95144 2.581068,2.52648 9.136624,2.14986 z"
       id="path126" /><path
       style="fill:#000000"
       d="m 124.56606,198.3751 c -0.53878,-0.24554 -1.15414,-0.55509 -1.36746,-0.68788 -0.21332,-0.13279 -0.71019,-0.38758 -1.10415,-0.56619 -0.39396,-0.17862 -0.8042,-0.3736 -0.91164,-0.43328 -0.10745,-0.0597 -0.28326,-0.13959 -0.39071,-0.17756 -0.10744,-0.038 -0.42977,-0.20049 -0.71629,-0.36115 -0.28651,-0.16067 -0.62349,-0.29445 -0.74885,-0.29729 -0.12535,-0.003 -0.22791,-0.049 -0.22791,-0.10247 0,-0.0535 -0.33698,-0.22477 -0.74884,-0.38057 -0.41187,-0.1558 -0.82075,-0.3484 -0.90863,-0.42801 -0.0879,-0.0796 -0.55673,-0.31547 -1.04188,-0.52414 -0.48515,-0.20867 -1.02324,-0.4418 -1.19576,-0.51805 -0.51403,-0.2272 -1.08816,-0.77897 -1.00844,-0.96917 0.18808,-0.44875 -3.79919,-0.15647 -4.62701,0.33918 -0.24149,0.14459 -0.825,0.18484 -2.90683,0.20052 -1.43258,0.0108 -2.7805,0.0632 -2.99539,0.11647 -0.21489,0.0533 -1.387,0.13026 -2.60469,0.1711 -1.217694,0.0408 -2.331199,0.0791 -2.474457,0.085 -0.143258,0.006 -0.865711,0.0843 -1.60545,0.17427 -0.73974,0.09 -1.809291,0.1681 -2.37678,0.17366 -0.567489,0.006 -1.031798,0.0533 -1.031798,0.10614 0,0.0528 -0.278376,0.12684 -0.618613,0.16451 -0.340238,0.0377 -0.794431,0.0916 -1.009318,0.11981 -0.214886,0.0282 -0.976758,0.11051 -1.693048,0.18287 -1.530991,0.15466 -1.651754,0.17257 -1.823283,0.27042 -0.07163,0.0409 -0.569775,0.0894 -1.106993,0.10781 -1.152016,0.0395 -1.238551,0.0675 -1.015641,0.32858 0.14474,0.16951 0.140959,0.17889 -0.02623,0.0651 -0.270272,-0.18393 -1.250782,-0.28391 -1.404463,-0.1432 -0.06941,0.0635 -1.066633,0.12376 -2.216053,0.13381 -1.149421,0.01 -2.079692,0.0663 -2.06727,0.12501 0.01242,0.0587 -0.05067,0.13135 -0.140207,0.16141 -0.08954,0.0301 -0.162793,-0.0215 -0.162793,-0.1146 0,-0.11584 -0.170377,-0.17536 -0.539919,-0.18862 -0.296955,-0.0106 -0.604634,-0.0667 -0.683731,-0.12465 -0.0791,-0.0579 -0.29975,-0.089 -0.490341,-0.0691 -0.244348,0.0255 -0.503564,-0.0868 -0.879083,-0.38115 -0.292904,-0.22955 -0.533108,-0.37294 -0.533785,-0.31864 -0.0049,0.39162 -0.648098,-0.99983 -0.718966,-1.55533 -0.201549,-1.57985 2.159632,-4.37947 3.609289,-4.27949 0.130095,0.009 0.236536,-0.0323 0.236536,-0.0918 0,-0.0594 0.08198,-0.0793 0.182179,-0.0441 0.100198,0.0352 0.218775,0.01 0.263504,-0.0565 0.04473,-0.0663 0.358337,-0.15409 0.696905,-0.19517 0.338568,-0.0411 0.732789,-0.11899 0.876047,-0.17314 0.79919,-0.30211 10.391962,-0.48605 10.698761,-0.20515 0.0477,0.0437 0.160167,0.0236 0.249917,-0.0446 0.113057,-0.0859 0.189105,-0.0856 0.247579,10e-4 0.04642,0.0688 0.370508,0.12503 0.720198,0.12503 0.34969,0 0.666515,0.0455 0.704055,0.10111 0.03754,0.0556 1.051944,0.13894 2.254231,0.18516 1.202287,0.0462 2.420398,0.1364 2.706914,0.20038 0.286517,0.064 0.989787,0.16463 1.562817,0.22365 1.36637,0.14073 3.07515,0.37484 3.32098,0.45498 0.23729,0.0774 0.22744,0.076 1.40291,0.19834 0.5209,0.0542 0.97855,0.14521 1.017,0.20217 0.0384,0.057 0.31553,0.10485 0.61572,0.10642 0.3002,0.002 0.78024,0.055 1.06675,0.11883 0.28652,0.0638 0.75536,0.1452 1.04188,0.18091 0.28651,0.0357 0.93117,0.14665 1.43258,0.24655 0.5014,0.0999 1.14606,0.20914 1.43258,0.24274 0.28651,0.0336 0.63815,0.10696 0.7814,0.16302 0.2481,0.0971 1.18914,0.25418 1.8884,0.31527 0.32994,0.0288 1.3262,0.2285 2.86516,0.57425 0.46559,0.1046 1.28607,0.26656 1.82329,0.35989 2.45192,0.426 3.08127,0.67634 2.78268,1.10686 -0.16115,0.23234 -0.84738,0.2503 -2.48966,0.0652 l -0.9442,-0.10645 v 0.66947 c 0,0.66592 0.32737,1.18799 0.74494,1.18799 0.15511,0 1.23361,0.49139 1.33881,0.61 0.0358,0.0404 0.30346,0.18401 0.59477,0.31919 0.29131,0.13518 0.60616,0.3302 0.69968,0.43336 0.0935,0.10317 0.27289,0.18758 0.3986,0.18758 0.12572,0 0.30037,0.0792 0.38813,0.17601 0.0877,0.0968 0.51981,0.34137 0.96014,0.54347 2.03248,0.93284 2.03783,0.93608 2.03783,1.23407 0,0.58184 -0.78078,0.57389 -2.08659,-0.0212 z m 1.50054,-0.0532 c -0.56406,-0.30473 -1.58964,-0.80691 -2.10196,-1.02922 -0.29654,-0.12867 -0.57837,-0.29205 -0.6263,-0.36306 -0.0479,-0.071 -0.16858,-0.12911 -0.26811,-0.12911 -0.0995,0 -0.33905,-0.13415 -0.53227,-0.2981 -0.19322,-0.16396 -0.45279,-0.2981 -0.57682,-0.2981 -0.12403,0 -0.30319,-0.0857 -0.39814,-0.19046 -0.0949,-0.10475 -0.52702,-0.34421 -0.96015,-0.53213 -0.43313,-0.18792 -0.98159,-0.50465 -1.21881,-0.70384 -0.23721,-0.1992 -0.51224,-0.36218 -0.61117,-0.36218 -0.0989,0 -0.40299,-0.12062 -0.67569,-0.26805 -1.5508,-0.83837 -2.00879,-1.03113 -2.75173,-1.15821 -1.12776,-0.19291 -0.60523,0.34317 0.88845,0.91148 0.46558,0.17714 0.99303,0.41127 1.17211,0.52027 0.17907,0.10901 1.17536,0.59773 2.21398,1.08606 1.03862,0.48833 2.00561,0.94833 2.14887,1.02224 0.14326,0.0739 0.34838,0.16477 0.45582,0.20193 0.10745,0.0372 0.31256,0.13003 0.45582,0.20637 0.14326,0.0763 0.34838,0.18183 0.45582,0.23441 0.10745,0.0526 0.57629,0.29571 1.04188,0.5403 1.30999,0.68817 1.4745,0.75611 1.82328,0.75301 0.31075,-0.003 0.31372,-0.009 0.0651,-0.14361 z m -39.851753,-3.46892 c 0.931177,-0.10256 2.044682,-0.24362 2.474455,-0.31347 0.933407,-0.15169 4.60273,-0.59736 5.339614,-0.64854 0.286516,-0.0199 0.608846,-0.0666 0.71629,-0.10367 0.107443,-0.0371 0.810709,-0.10207 1.562814,-0.14434 0.752104,-0.0423 1.543278,-0.10425 1.758165,-0.13773 0.214887,-0.0335 1.445603,-0.0899 2.734925,-0.12528 1.28932,-0.0354 2.40283,-0.10638 2.47445,-0.15767 0.0716,-0.0513 1.38895,-0.10104 2.92738,-0.11056 2.24056,-0.0139 2.87546,-0.054 3.19075,-0.20185 0.9526,-0.44665 1.5285,-0.51875 4.10528,-0.5139 2.94995,0.006 5.30115,0.14821 5.504,0.33394 0.0985,0.0902 0.19182,0.0921 0.30491,0.006 0.11284,-0.0857 0.45613,-0.0826 1.1166,0.0103 1.52273,0.21407 2.28163,0.26604 2.06067,0.14111 -0.26676,-0.15081 -2.01287,-0.51321 -3.7768,-0.78385 -0.10744,-0.0165 -0.28326,-0.0612 -0.3907,-0.0993 -0.36671,-0.13017 -1.36633,-0.33408 -2.21399,-0.45163 -0.46559,-0.0646 -1.28606,-0.20067 -1.82328,-0.30246 -0.53722,-0.1018 -1.35687,-0.24002 -1.82145,-0.30715 -0.46458,-0.0671 -0.90412,-0.16704 -0.97676,-0.22201 -0.0726,-0.055 -0.63021,-0.1383 -1.23906,-0.18518 -0.60885,-0.0469 -1.17019,-0.13103 -1.24743,-0.18702 -0.0772,-0.056 -1.01492,-0.21559 -2.08375,-0.35469 -1.06882,-0.1391 -2.03123,-0.2831 -2.13867,-0.32 -0.10744,-0.0369 -0.22465,-0.075 -0.26047,-0.0847 -0.0358,-0.01 -0.54861,-0.0602 -1.13955,-0.11214 -0.59094,-0.052 -1.07443,-0.13584 -1.07443,-0.18637 0,-0.0505 -0.4835,-0.12187 -1.07444,-0.15852 -0.59094,-0.0367 -1.25025,-0.10131 -1.465137,-0.14366 -0.214887,-0.0424 -1.328391,-0.12526 -2.474455,-0.18423 -1.146063,-0.059 -2.259568,-0.1576 -2.474455,-0.21918 -0.731947,-0.20975 -6.507725,-0.37334 -8.669112,-0.24554 -0.604161,0.0357 -1.186382,0.019 -1.293826,-0.0373 -0.191567,-0.10023 -1.275578,0.0518 -3.174641,0.44524 -3.882117,0.80429 -6.089443,3.72511 -4.142971,5.48215 0.55852,0.50416 0.723102,0.57607 1.635833,0.71469 0.205768,0.0312 0.410383,0.09 0.4547,0.1306 0.141403,0.12947 4.838709,-0.0288 6.594541,-0.22221 z"
       id="path116" /><path
       style="fill:#000000"
       d="m 125.67854,206.20939 c -0.7826,-0.35227 -3.05225,-1.06205 -3.39612,-1.06205 -0.16656,0 -0.33696,-0.0506 -0.37867,-0.11235 -0.0417,-0.0618 -0.33892,-0.14848 -0.66046,-0.19262 -0.32155,-0.0442 -0.61667,-0.12774 -0.65583,-0.18575 -0.0392,-0.058 -0.29569,-0.10548 -0.57006,-0.10548 -0.27438,0 -0.95954,-0.0757 -1.52257,-0.1682 -0.56304,-0.0925 -1.56633,-0.17175 -2.22953,-0.17608 -1.54645,-0.0101 -2.65495,-0.6688 -1.93576,-1.15029 0.31416,-0.21033 0.27047,-0.23472 -0.41433,-0.23127 -0.34407,0.002 -1.2964,-0.0403 -2.11628,-0.0934 -1.57872,-0.10225 -2.00264,-0.13372 -4.4861,-0.33294 -1.95313,-0.15668 -2.721,-0.0953 -3.45742,0.27617 -0.60593,0.30567 -0.61448,0.30642 -5.789225,0.50901 -0.861688,0.0337 -3.134862,0.18407 -5.404731,0.35743 -0.250701,0.0191 -0.895362,0.0643 -1.432579,0.10032 -0.537217,0.036 -1.357695,0.0937 -1.823283,0.12825 -0.465588,0.0345 -1.373974,0.0951 -2.018634,0.13462 -0.849857,0.0521 -1.216868,0.12433 -1.334904,0.26268 -0.09613,0.11266 -0.162793,0.13264 -0.162793,0.0488 0,-0.0781 -0.06206,-0.14203 -0.13792,-0.14203 -0.07586,0 -0.09391,0.0671 -0.04012,0.14905 0.06112,0.0931 0.01144,0.0849 -0.132474,-0.0221 -0.200107,-0.14876 -0.245779,-0.14876 -0.348592,0 -0.08215,0.11887 -0.118924,0.12564 -0.120309,0.0221 -0.0011,-0.082 -0.06406,-0.14905 -0.139914,-0.14905 -0.07586,0 -0.110882,0.0403 -0.07783,0.0894 0.03305,0.0492 -0.300475,0.0961 -0.741162,0.10418 -0.440687,0.008 -0.930842,0.0449 -1.089233,0.0817 -0.57176,0.13291 -3.247183,0.11359 -4.074871,-0.0294 -4.234161,-0.73163 -2.920855,-4.58 1.953517,-5.72437 0.32233,-0.0757 0.673963,-0.16923 0.781407,-0.20791 0.107443,-0.0387 0.487196,-0.0898 0.843896,-0.11348 0.356699,-0.0237 0.972057,-0.1179 1.367462,-0.20925 0.728163,-0.16823 7.23817,-0.20485 7.686462,-0.0432 0.107444,0.0387 0.781407,0.10306 1.497697,0.14294 1.999139,0.11132 2.764288,0.18295 4.037269,0.37795 0.64466,0.0987 1.547563,0.20026 2.006449,0.22556 0.458887,0.0253 0.877845,0.11046 0.931015,0.18924 0.0636,0.0942 0.28826,0.11969 0.65659,0.0745 0.36279,-0.0446 0.49352,-0.0303 0.37133,0.0405 -0.13358,0.0774 -0.0366,0.11242 0.33235,0.12018 0.28652,0.006 0.60885,0.0331 0.71629,0.0601 0.10745,0.0271 0.84002,0.16116 1.62793,0.29801 0.78792,0.13684 1.59447,0.27776 1.79232,0.31315 0.19786,0.0354 0.39179,0.1118 0.43095,0.16983 0.0392,0.058 0.31721,0.10549 0.61788,0.10549 0.30067,0 0.74429,0.0519 0.98582,0.11531 0.24154,0.0634 0.68069,0.12696 0.9759,0.14119 0.29521,0.0142 0.62466,0.0662 0.7321,0.11545 0.36177,0.1659 1.07103,0.34107 1.16521,0.28778 0.0514,-0.0291 0.67452,0.0789 1.38476,0.2399 0.71024,0.16103 1.41162,0.29277 1.55862,0.29277 0.14701,0 0.32296,0.0452 0.39101,0.10039 0.068,0.0552 0.5225,0.19611 1.00988,0.3131 1.03923,0.24945 1.32525,0.44912 1.12764,0.7872 -0.12195,0.20862 -0.0883,0.2302 0.35926,0.2302 0.2716,0 0.69306,0.0523 0.93657,0.11626 0.24352,0.0639 0.68069,0.14875 0.97151,0.18846 0.29081,0.0397 0.61864,0.11469 0.7285,0.1666 0.10986,0.0519 0.49277,0.13331 0.85092,0.18087 0.35814,0.0476 0.70977,0.12067 0.7814,0.16247 0.15552,0.0907 0.22846,0.10487 0.64187,0.12436 0.17396,0.008 0.39568,0.0876 0.49271,0.17644 0.097,0.0888 0.3503,0.19154 0.5628,0.22821 0.6783,0.11706 1.54587,0.34471 1.96887,0.51663 0.22571,0.0917 0.47427,0.16679 0.55235,0.16679 0.55309,0 1.97865,0.76982 1.94166,1.04852 -0.0671,0.50606 -0.47052,0.64491 -1.07847,0.37125 z m 0.71365,-0.34661 c 0,-0.0656 -0.0979,-0.11924 -0.21766,-0.11924 -0.11971,0 -0.31018,-0.0754 -0.42326,-0.1676 -0.23118,-0.18844 -1.72833,-0.66581 -3.00565,-0.95837 -0.46559,-0.10664 -0.96374,-0.2416 -1.10699,-0.29991 -0.36316,-0.14783 -1.51349,-0.43278 -2.66981,-0.66135 -0.53722,-0.1062 -1.12327,-0.22533 -1.30235,-0.26475 -0.17907,-0.0394 -0.39442,-0.0615 -0.47855,-0.0491 -0.0841,0.0124 -0.19016,-0.0325 -0.2356,-0.0998 -0.12437,-0.18424 -1.79652,-0.15201 -2.08357,0.0402 -0.46128,0.30882 0.24682,0.56527 1.64924,0.5973 1.21764,0.0278 3.7782,0.281 4.14388,0.40975 0.10744,0.0378 0.25654,0.0728 0.33132,0.0777 0.1493,0.01 1.53308,0.39996 1.94778,0.5492 0.14326,0.0516 0.75862,0.23334 1.36746,0.40395 0.60885,0.17062 1.25351,0.38731 1.43258,0.48154 0.38425,0.20219 0.65118,0.227 0.65118,0.0605 z m -42.468337,-2.04131 c 1.336378,-0.16602 1.120649,-0.14957 6.784084,-0.5173 2.701106,-0.17538 4.718454,-0.33173 5.404731,-0.41888 0.429774,-0.0546 1.423748,-0.10833 2.208831,-0.11946 0.785084,-0.0111 1.471856,-0.0454 1.52616,-0.0761 0.0543,-0.0307 0.789191,-0.0583 1.633091,-0.0613 1.46235,-0.005 1.56779,-0.0225 2.24701,-0.36896 l 0.71266,-0.36357 2.02226,0.0846 c 1.11225,0.0465 2.81344,0.16085 3.78043,0.25409 2.70861,0.26117 5.33961,0.3541 5.33961,0.18861 0,-0.0757 -0.10549,-0.1376 -0.23442,-0.1376 -0.12893,0 -0.2901,-0.0441 -0.35814,-0.0979 -0.068,-0.0538 -0.70978,-0.21736 -1.42607,-0.36337 -0.71629,-0.14602 -1.47816,-0.31228 -1.69305,-0.36948 -0.21489,-0.0572 -0.65443,-0.13966 -0.97676,-0.18324 -0.32233,-0.0436 -0.87507,-0.15521 -1.2283,-0.24806 -0.35324,-0.0929 -0.89189,-0.16883 -1.19699,-0.16883 -0.3051,0 -0.58841,-0.0499 -0.62959,-0.1109 -0.0412,-0.061 -0.41091,-0.14484 -0.82165,-0.18633 -1.3219,-0.13353 -1.55101,-0.17073 -1.93369,-0.314 -0.20675,-0.0774 -0.52243,-0.15127 -0.7015,-0.16414 -0.17907,-0.0129 -0.4135,-0.0568 -0.52094,-0.0977 -0.22352,-0.085 -1.60718,-0.30657 -2.47446,-0.39626 -0.32233,-0.0333 -0.73256,-0.10984 -0.91164,-0.17003 -0.17907,-0.0602 -0.530703,-0.13171 -0.781404,-0.15894 -0.250701,-0.0272 -0.807454,-0.0916 -1.237228,-0.14303 -0.429773,-0.0515 -0.859011,-0.0799 -0.953861,-0.0632 -0.09485,0.0167 -0.242532,-0.0229 -0.328182,-0.0879 -0.08565,-0.0651 -0.938992,-0.14872 -1.896317,-0.18586 -0.957325,-0.0371 -1.952451,-0.1185 -2.211391,-0.1808 -0.939013,-0.22593 -7.829048,-0.43893 -7.829048,-0.24203 0,0.037 -0.325648,0.0743 -0.723661,0.0828 -0.398013,0.009 -0.795695,0.0703 -0.883738,0.13715 -0.08804,0.0669 -0.333799,0.11513 -0.546125,0.10718 -0.932542,-0.0349 -2.121906,0.25351 -3.360902,0.81502 -0.346848,0.1572 -0.70787,0.28581 -0.802271,0.28581 -0.33465,0 -1.495346,0.9616 -1.755291,1.45421 -1.191103,2.25718 1.405286,3.25065 6.757752,2.58574 z"
       id="path114" /><path
       style="fill:#000000"
       d="m 125.48601,219.52188 c -0.0922,-0.10169 -0.27472,-0.18489 -0.40564,-0.18489 -0.13093,0 -0.28492,-0.0753 -0.3422,-0.16731 -0.11624,-0.18673 -1.29081,-0.78662 -1.54018,-0.78662 -0.088,0 -0.23243,-0.0799 -0.32095,-0.17754 -0.0885,-0.0977 -0.2129,-0.14815 -0.27641,-0.11221 -0.0635,0.0359 -0.11548,0.015 -0.11548,-0.0465 0,-0.0615 -0.19047,-0.18056 -0.42326,-0.26458 -0.2328,-0.084 -0.59908,-0.26634 -0.81397,-0.40516 -0.21488,-0.13881 -0.72259,-0.40257 -1.12824,-0.58612 -0.40564,-0.18355 -0.83961,-0.437 -0.96438,-0.56323 -0.12477,-0.12623 -0.28549,-0.22951 -0.35717,-0.22951 -0.0717,0 -0.3224,-0.13414 -0.55718,-0.2981 -0.23477,-0.16395 -0.47694,-0.2981 -0.53815,-0.2981 -0.0612,0 -0.31419,-0.15879 -0.56218,-0.35287 -0.248,-0.19409 -0.51266,-0.35506 -0.58815,-0.35773 -0.91996,-0.0325 -1.3607,-1.87204 -0.46118,-1.9249 0.69019,-0.0405 -0.77442,-0.18081 -1.71909,-0.16463 -0.62919,0.0108 -1.17443,-0.0255 -1.21164,-0.0806 -0.0372,-0.0551 -0.17474,-0.10024 -0.30561,-0.10024 -0.27518,0 -0.72146,-0.75714 -0.58063,-0.98506 0.0502,-0.0813 0.21353,-0.2719 0.36293,-0.42366 l 0.27164,-0.27594 -2.9544,0.0375 c -2.14325,0.0272 -2.99907,0.0784 -3.1171,0.1865 -0.0895,0.082 -0.26425,0.14905 -0.38835,0.14905 -0.12411,0 -0.26117,0.10247 -0.30458,0.22772 -0.15798,0.45572 -0.45267,0.54685 -1.81471,0.56118 -1.94265,0.0205 -6.036485,0.2659 -6.784503,0.40678 -0.358145,0.0674 -0.914897,0.14739 -1.237227,0.17764 -0.322331,0.0302 -1.172111,0.11331 -1.8884,0.18458 -0.71629,0.0713 -1.577926,0.147 -1.914748,0.1683 -1.798332,0.11373 -2.581539,0.24698 -2.739141,0.46601 -0.0598,0.0831 -0.09643,0.0866 -0.09768,0.009 -0.0023,-0.14241 -0.729643,-0.21891 -0.941489,-0.099 -0.146911,0.0831 -0.767513,0.15256 -1.502402,0.16807 -0.234078,0.005 -0.424153,0.0724 -0.425256,0.15103 -0.0013,0.0952 -0.03894,0.0887 -0.113955,-0.0197 -0.06989,-0.10099 -0.142595,-0.1164 -0.193487,-0.041 -0.04484,0.0664 -0.197803,0.0929 -0.339919,0.0589 -0.385639,-0.0923 -0.771094,0.0622 -0.519105,0.20808 0.116958,0.0677 0.131226,0.11171 0.0366,0.11283 -0.08531,0.001 -0.191327,-0.0518 -0.235597,-0.11742 -0.04427,-0.0656 -0.318628,-0.11924 -0.609687,-0.11924 -0.484412,0 -0.514262,0.0177 -0.352703,0.20867 0.16809,0.19874 0.16371,0.19874 -0.09199,0 -0.300045,-0.2332 -0.773377,-0.27574 -0.904629,-0.0813 -0.04729,0.0701 -0.167957,0.0986 -0.268155,0.0634 -0.100198,-0.0352 -0.182107,-0.0254 -0.182019,0.0217 2.51e-4,0.13514 -3.053904,0.0447 -3.103639,-0.092 -0.02412,-0.0662 -0.212982,-0.12046 -0.419694,-0.12046 -0.90159,0 -2.127217,-0.95284 -2.160838,-1.6799 -0.02998,-0.64833 0.210339,-1.63197 0.416405,-1.70437 0.103654,-0.0364 0.188462,-0.14392 0.188462,-0.23888 0,-0.095 0.06701,-0.19312 0.14891,-0.21812 0.108801,-0.0332 0.103696,-0.1242 -0.01895,-0.33784 l -0.16786,-0.29241 0.301806,0.23849 c 0.165993,0.13116 0.25897,0.1714 0.206616,0.0894 -0.05397,-0.0845 -0.0282,-0.14905 0.05951,-0.14905 0.08508,0 0.381737,-0.18781 0.659233,-0.41735 0.277497,-0.22953 0.621582,-0.41734 0.764633,-0.41734 0.143052,0 0.260094,-0.0537 0.260094,-0.11924 0,-0.0656 0.08791,-0.11924 0.195352,-0.11924 0.107443,0 0.195351,-0.0805 0.195351,-0.17886 0,-0.2037 0.332299,-0.24261 0.459729,-0.0538 0.05409,0.0801 0.138698,0.0843 0.235597,0.0115 0.08316,-0.0624 0.48818,-0.15172 0.900047,-0.19839 0.676393,-0.0766 0.748848,-0.11236 0.748848,-0.36921 0,-0.31537 0.2265,-0.38492 0.343607,-0.1055 0.0829,0.1978 0.4378,0.24753 0.4378,0.0613 0,-0.0672 0.25074,-0.096 0.586055,-0.0672 0.32233,0.0277 0.586055,6e-5 0.586055,-0.0613 0,-0.0614 0.175817,-0.11164 0.390704,-0.11164 0.214887,0 0.390703,-0.0537 0.390703,-0.11924 0,-0.0656 0.08791,-0.11924 0.195352,-0.11924 0.107443,0 0.195352,0.0444 0.195352,0.0986 0,0.0542 0.161165,0.0782 0.358144,0.0534 0.665058,-0.084 7.431833,-0.2122 7.382831,-0.13987 -0.02672,0.0394 0.315781,0.0813 0.761107,0.0929 0.445326,0.0117 1.178968,0.0748 1.630317,0.14024 0.451349,0.0654 0.878806,0.0861 0.949905,0.0458 0.0711,-0.0402 0.19996,-0.022 0.286359,0.0405 0.0864,0.0625 0.530151,0.14309 0.986117,0.17907 0.455965,0.036 0.892576,0.1236 0.970246,0.19471 0.07767,0.0711 0.525085,0.13205 0.994256,0.13542 0.46917,0.003 1.23397,0.053 1.69956,0.11025 0.46559,0.0573 1.13896,0.14001 1.49638,0.18385 0.35742,0.0439 0.75505,0.13127 0.88362,0.19427 0.12857,0.063 0.74452,0.19631 1.36878,0.29625 2.32498,0.37222 2.54092,0.41194 2.74727,0.50532 0.11606,0.0525 0.50405,0.10772 0.8622,0.12265 0.35814,0.0149 1.12802,0.13109 1.71084,0.25814 0.58283,0.12705 1.20938,0.231 1.39234,0.231 0.18296,0 0.36888,0.0537 0.41315,0.11924 0.0443,0.0656 0.22079,0.11924 0.39226,0.11924 0.45075,0 0.95818,0.24002 1.04659,0.49506 0.0916,0.26426 0.31931,0.29387 0.31931,0.0415 0,-0.0984 0.0586,-0.17886 0.13024,-0.17886 0.0716,0 0.13023,0.10732 0.13023,0.23848 0,0.17161 0.0868,0.23848 0.30964,0.23848 0.1703,0 0.3826,0.0805 0.47177,0.17886 0.0892,0.0984 0.24677,0.17886 0.35023,0.17886 0.59214,0 1.43711,1.23033 0.94347,1.37378 -0.46022,0.13374 -0.26093,0.26384 0.52958,0.34573 0.42978,0.0445 0.78187,0.11852 0.78243,0.16445 5.5e-4,0.0459 0.13242,0.14259 0.29302,0.2148 1.55889,0.70089 3.01148,1.55712 3.26132,1.92239 0.0573,0.0837 0.19772,0.15227 0.31208,0.15227 0.44849,0 4.21612,3.60275 4.17736,3.99456 -0.0411,0.41558 -0.58406,0.56706 -0.87644,0.24451 z m 0.0535,-0.8038 c -0.28315,-0.27481 -0.63202,-0.59332 -0.77528,-0.70778 -0.14326,-0.11447 -0.80796,-0.6945 -1.47712,-1.28895 -0.66916,-0.59445 -1.26093,-1.08082 -1.31504,-1.08082 -0.0541,0 -0.38571,-0.24028 -0.73687,-0.53395 -0.35116,-0.29368 -0.73195,-0.53514 -0.8462,-0.53658 -0.11425,-0.001 -0.3138,-0.10995 -0.44345,-0.24111 -0.12964,-0.13117 -0.34385,-0.23848 -0.476,-0.23848 -0.13216,0 -0.24029,-0.0537 -0.24029,-0.11925 0,-0.0656 -0.11003,-0.11924 -0.24452,-0.11924 -0.13449,0 -0.31748,-0.0805 -0.40665,-0.17886 -0.0892,-0.0984 -0.26728,-0.17886 -0.3958,-0.17886 -0.12851,0 -0.25551,-0.06 -0.28222,-0.13336 -0.0268,-0.0737 -0.46856,-0.16088 -0.98761,-0.19489 l -0.93906,-0.0615 v 0.30798 c 0,0.30446 0.49657,0.91647 0.7436,0.91647 0.0702,0 0.23375,0.10731 0.36339,0.23848 0.12965,0.13116 0.30649,0.23848 0.39299,0.23848 0.0865,0 0.37849,0.16097 0.64889,0.35772 0.2704,0.19675 0.54838,0.35772 0.61772,0.35772 0.0694,0 0.30021,0.13415 0.51302,0.2981 0.21282,0.16396 0.46127,0.2981 0.55212,0.2981 0.0909,0 0.27125,0.10732 0.40089,0.23848 0.12965,0.13117 0.30665,0.23849 0.39333,0.23849 0.0867,0 0.29737,0.0998 0.46819,0.22185 0.17083,0.12201 1.01386,0.55655 1.87341,0.96563 0.85954,0.40907 1.82654,0.89527 2.14887,1.08042 0.85622,0.49183 1.04326,0.43183 0.44969,-0.14428 z m -40.907838,-5.44859 c 0.919992,-0.073 1.739992,-0.17084 1.822223,-0.21737 0.08223,-0.0465 0.355107,-0.0931 0.606391,-0.10346 0.985685,-0.0407 2.706129,-0.19071 3.387157,-0.29538 0.393959,-0.0606 1.36095,-0.16678 2.148869,-0.23607 0.787918,-0.0693 1.637698,-0.14491 1.8884,-0.16802 2.544712,-0.23463 3.378283,-0.32844 3.711683,-0.41767 0.409688,-0.10966 3.948335,-0.28344 6.045715,-0.29691 1.21208,-0.008 1.22983,-0.0121 1.45666,-0.35522 0.45272,-0.68482 1.2649,-0.81499 5.06525,-0.81181 1.99026,0.002 2.66822,-0.0303 2.34422,-0.11044 -0.54751,-0.13548 -0.81225,-0.18587 -1.49769,-0.28508 -0.28652,-0.0415 -0.60885,-0.10687 -0.71629,-0.14532 -0.2271,-0.0813 -0.40546,-0.10556 -1.59888,-0.21771 -0.48543,-0.0456 -0.91378,-0.12913 -0.95189,-0.18559 -0.0381,-0.0565 -0.23234,-0.10265 -0.43161,-0.10265 -0.19928,0 -0.65001,-0.0798 -1.00164,-0.17743 -0.35162,-0.0976 -1.02024,-0.21288 -1.48583,-0.25623 -0.46559,-0.0433 -0.87774,-0.12218 -0.91589,-0.17519 -0.0382,-0.053 -0.50699,-0.15141 -1.04187,-0.21865 -0.53489,-0.0672 -1.11903,-0.14677 -1.2981,-0.17674 -0.17908,-0.03 -0.8814,-0.0894 -1.56073,-0.13206 -0.679321,-0.0427 -1.325039,-0.12163 -1.434925,-0.17548 -0.109886,-0.0538 -0.696882,-0.13636 -1.304436,-0.18338 -0.607554,-0.047 -1.192552,-0.12583 -1.299995,-0.17514 -0.695041,-0.31899 -10.329924,-0.32359 -11.248523,-0.005 -0.152476,0.0528 -0.658165,0.13375 -1.123753,0.17985 -0.873319,0.0865 -1.63441,0.27013 -1.923684,0.46419 -0.09103,0.0611 -0.325457,0.12702 -0.520938,0.14654 -0.725023,0.0724 -1.201944,0.18327 -1.201944,0.27938 0,0.0544 -0.184848,0.13278 -0.410774,0.17415 -1.930334,0.35348 -3.161045,3.34729 -1.618591,3.93736 0.239115,0.0915 0.47467,0.22545 0.523456,0.29772 0.04879,0.0723 0.36362,0.13676 0.69963,0.1433 0.33601,0.007 0.757441,0.0567 0.936514,0.11153 0.371872,0.1138 1.547482,0.0812 3.951815,-0.10965 z m 32.053218,-1.07982 c 0.10104,-0.14969 -0.44192,-0.60332 -0.72211,-0.60332 -0.12209,0 -0.25431,-0.0771 -0.29383,-0.17143 -0.24665,-0.58851 -2.65091,-0.4928 -2.90593,0.11568 -0.17435,0.41598 0.28282,0.5888 1.74975,0.66145 0.76753,0.038 1.55322,0.0783 1.74597,0.0894 0.19276,0.0112 0.38452,-0.0301 0.42615,-0.0918 z"
       id="path102" /><path
       style="fill:#000000"
       d="m 81.721758,225.30223 c -0.277969,-0.0865 -1.109704,-0.28762 -1.65672,-0.40064 -0.08746,-0.0181 -0.199791,-0.0702 -0.249617,-0.11581 -0.04983,-0.0456 -0.185386,-0.0829 -0.301245,-0.0829 -0.11586,0 -0.512076,-0.28171 -0.880481,-0.62601 l -0.669827,-0.62602 0.136069,-0.61689 c 0.08436,-0.38245 0.193609,-0.59669 0.287474,-0.56371 0.08327,0.0293 0.367844,-0.12832 0.63238,-0.35017 0.264536,-0.22185 0.511853,-0.37509 0.549595,-0.34053 0.03774,0.0346 0.06862,-0.003 0.06862,-0.0833 0,-0.0804 0.05309,-0.1161 0.117989,-0.0794 0.102049,0.0577 1.114139,-0.33497 1.705294,-0.66169 0.107443,-0.0594 0.28326,-0.13837 0.390703,-0.17553 0.107444,-0.0372 0.294423,-0.11577 0.41551,-0.17468 0.121087,-0.0589 0.589931,-0.16169 1.041876,-0.2284 0.451945,-0.0667 1.02645,-0.17556 1.276678,-0.2419 0.642142,-0.17025 1.433893,-0.15452 1.431445,0.0284 -0.0037,0.27917 -0.192856,0.42035 -1.071268,0.7997 -0.482852,0.20853 -0.960093,0.48656 -1.060537,0.61786 -0.123479,0.16141 -0.200307,0.19016 -0.237221,0.0888 -0.04067,-0.11171 -0.118957,-0.0992 -0.306926,0.0491 -1.088456,0.85853 -1.378333,1.12064 -1.411813,1.27657 -0.02112,0.0984 -0.08166,0.26999 -0.134536,0.38136 -0.130772,0.27546 0.236926,0.81566 0.792397,1.16414 1.046055,0.65626 0.412879,1.35957 -0.865839,0.96174 z m 0.838857,-0.53598 c -0.139041,-0.0963 -0.31549,-0.17677 -0.392109,-0.17886 -0.312942,-0.009 -0.723991,-0.6348 -0.799435,-1.21803 l -0.07774,-0.60097 0.982392,-0.85119 c 0.876716,-0.75963 1.620724,-1.21207 2.36439,-1.4378 0.135603,-0.0412 0.222851,-0.0965 0.193884,-0.12305 -0.0679,-0.0622 -1.79197,0.26049 -2.133483,0.39928 -0.143258,0.0582 -0.787918,0.31284 -1.432579,0.56583 -0.644661,0.25299 -1.402922,0.64779 -1.685025,0.87733 -0.282103,0.22954 -0.469112,0.35027 -0.415576,0.26829 0.176427,-0.27016 -0.07718,-0.15526 -0.394785,0.17886 -0.560993,0.59016 -0.171211,1.15357 1.21889,1.76183 1.130786,0.4948 3.180728,0.78061 2.571174,0.35848 z"
       id="path97" /><path
       style="fill:#000000"
       d="m 117.18755,229.15091 c -0.15596,-0.0278 -0.3536,-0.12781 -0.43921,-0.22224 -0.0856,-0.0944 -0.23429,-0.1717 -0.33042,-0.1717 -0.0961,0 -0.44193,-0.13656 -0.76843,-0.30346 -0.32651,-0.1669 -0.64478,-0.27452 -0.70727,-0.23916 -0.0625,0.0354 -0.14392,-0.008 -0.18096,-0.0964 -0.088,-0.21006 -1.11267,-0.69767 -1.2741,-0.60633 -0.0687,0.0389 -0.10877,0.003 -0.0891,-0.0793 0.0197,-0.0825 -0.12081,-0.22153 -0.3122,-0.30901 -0.43967,-0.20097 -2.71252,-2.27898 -2.71252,-2.47999 0,-0.0824 -0.0879,-0.21662 -0.19535,-0.29826 -0.24691,-0.18762 -0.25035,-0.79496 -0.007,-1.22222 0.18438,-0.32363 0.11338,-0.4373 -0.13252,-0.21216 -0.0695,0.0637 -0.76987,0.12396 -1.55631,0.134 -3.39362,0.0433 -6.20359,1.36632 -3.68514,1.73504 0.67861,0.0994 0.70775,0.73347 0.0413,0.89823 -0.39286,0.0971 -6.65492,0.0199 -7.748954,-0.0956 -0.32233,-0.034 -1.084202,-0.10716 -1.693048,-0.16255 -0.608846,-0.0554 -1.58303,-0.15844 -2.164854,-0.22902 -0.581823,-0.0706 -1.28509,-0.15295 -1.562814,-0.18305 -0.277724,-0.0301 -0.944494,-0.13641 -1.481711,-0.23623 -0.537217,-0.0998 -1.401649,-0.24622 -1.920959,-0.32534 -0.51931,-0.0791 -0.9442,-0.18789 -0.9442,-0.24171 0,-0.0538 -0.119273,-0.0979 -0.265051,-0.0979 -0.145778,0 -0.394851,-0.0745 -0.553496,-0.16548 -0.158645,-0.091 -0.493565,-0.20111 -0.744266,-0.24465 -0.721227,-0.12528 -1.348932,-0.9175 -1.265292,-1.59691 0.06461,-0.52485 0.959093,-1.57018 1.343591,-1.57018 0.08487,0 0.189281,-0.0835 0.232033,-0.18546 0.05673,-0.13537 0.137353,-0.15491 0.298458,-0.0724 0.1214,0.0622 0.312462,0.0691 0.424582,0.0153 0.328881,-0.15777 0.705893,-0.27341 0.985262,-0.30222 1.732963,-0.17871 3.08208,-0.28384 3.46331,-0.26986 0.257354,0.009 0.531681,-0.0189 0.609615,-0.063 0.07793,-0.0441 0.180978,-0.022 0.228987,0.0491 0.04801,0.0711 0.17599,0.0981 0.284401,0.0601 0.108412,-0.0381 1.377154,-0.0114 2.819427,0.0594 1.442273,0.0707 2.929994,0.1271 3.306046,0.12524 0.376052,-0.002 0.683731,0.0483 0.683731,0.11137 0,0.0631 0.241814,0.11474 0.537365,0.11474 0.510347,0 2.116737,0.20857 3.825487,0.4967 0.42978,0.0725 1.16235,0.17307 1.62793,0.22355 0.46559,0.0505 1.31537,0.19987 1.8884,0.33198 0.57304,0.13211 1.52887,0.33451 2.12408,0.44979 1.10164,0.21337 1.44175,0.43735 1.27354,0.83868 -0.0405,0.0967 -0.0241,0.14772 0.0364,0.11348 0.63548,-0.35959 1.91692,-0.0835 3.72891,0.80342 0.14326,0.0701 0.5828,0.27903 0.97676,0.46424 0.39396,0.18521 0.96187,0.52355 1.26203,0.75188 0.30016,0.22833 0.57946,0.41514 0.62067,0.41514 0.47005,0 3.71345,2.61696 3.6797,2.96899 -0.0506,0.52745 -0.37622,0.56833 -1.28404,0.16119 -1.74373,-0.78206 -2.39373,-0.7433 -1.62175,0.0967 0.62467,0.67971 0.34648,1.0431 -0.66108,0.86352 z m 0.2285,-0.60261 c -0.9592,-1.21805 0.3927,-1.79058 2.01026,-0.85135 1.32627,0.77009 0.79453,0.0177 -0.77821,-1.10115 -0.0743,-0.0529 -0.34022,-0.25211 -0.59092,-0.44277 -0.2507,-0.19067 -0.68193,-0.45717 -0.95829,-0.59223 -0.27635,-0.13507 -0.58736,-0.35654 -0.69111,-0.49217 -0.10376,-0.13563 -0.29398,-0.2466 -0.42272,-0.2466 -0.12874,0 -0.3767,-0.12073 -0.55102,-0.26829 -0.35885,-0.30376 -0.97159,-0.59212 -1.32842,-0.62517 -0.13193,-0.0122 -0.27845,-0.0754 -0.32559,-0.14033 -0.0471,-0.0649 -0.27617,-0.19397 -0.50897,-0.28671 -0.23279,-0.0927 -0.42326,-0.21233 -0.42326,-0.26577 0,-0.0534 -0.0612,-0.0626 -0.13594,-0.0202 -0.0748,0.0423 -0.20751,0.0225 -0.29498,-0.0439 -0.16312,-0.12396 -0.80906,-0.19765 -1.39876,-0.15959 -0.4625,0.0298 -0.77553,0.76467 -0.46121,1.08266 0.11393,0.11526 0.20714,0.25979 0.20714,0.32117 0,0.433 2.71743,2.58175 3.84814,3.04283 0.28995,0.11824 0.66625,0.32541 0.83623,0.46039 0.16998,0.13498 0.53346,0.27827 0.80773,0.31842 0.27428,0.0402 0.49868,0.11311 0.49868,0.16212 0,0.0706 0.73027,0.46253 0.88299,0.4739 0.02,0.001 -0.0797,-0.14484 -0.22177,-0.32519 z m -12.57921,-3.26777 c 0.0469,-0.0429 -0.10938,-0.11581 -0.34729,-0.16193 -1.20928,-0.23438 -1.11111,-1.8467 0.11244,-1.8467 0.13717,0 0.30509,-0.0495 0.37313,-0.10998 0.24021,-0.21352 2.22442,-0.50531 3.57318,-0.52545 1.18666,-0.0177 1.37146,-0.0477 1.40957,-0.22906 0.0241,-0.11477 0.002,-0.20867 -0.0484,-0.20867 -0.27003,0 -3.3956,-0.63349 -3.85034,-0.78039 -0.2927,-0.0945 -0.5721,-0.14932 -0.6209,-0.12171 -0.0488,0.0276 -0.64326,-0.0299 -1.32104,-0.12779 -0.67777,-0.0979 -1.61325,-0.22484 -2.07883,-0.2821 -0.46559,-0.0573 -1.02235,-0.1381 -1.23723,-0.17964 -1.822895,-0.35239 -11.104388,-0.65239 -12.242044,-0.39569 -0.143258,0.0323 -0.509542,0.0993 -0.813966,0.14884 -0.304423,0.0495 -0.553496,0.14239 -0.553496,0.20633 0,0.0639 -0.10256,0.10449 -0.22791,0.0901 -0.707997,-0.0812 -2.11748,0.96008 -2.113372,1.56127 0.0017,0.25342 0.681076,0.92538 0.874981,0.86546 0.0889,-0.0275 0.254248,0.0349 0.367447,0.1385 0.1132,0.10365 0.315384,0.18844 0.449298,0.18844 0.133914,0 0.273164,0.044 0.309445,0.0977 0.03628,0.0537 0.523234,0.19253 1.08212,0.30842 0.558886,0.11588 1.518134,0.31613 2.131662,0.445 0.613528,0.12887 1.404703,0.25931 1.758166,0.28987 0.601782,0.052 2.101648,0.22288 2.98688,0.34023 0.815551,0.10811 4.08801,0.32134 5.274499,0.34369 2.47965,0.0467 4.66875,0.0215 4.75202,-0.0548 z"
       id="path96" /><path
       style="fill:#000000"
       d="m 124.73778,238.70497 c -0.1287,-0.1684 -0.42446,-0.54447 -0.65726,-0.83571 -0.23279,-0.29124 -0.42326,-0.57134 -0.42326,-0.62243 0,-0.0511 -0.17343,-0.27868 -0.38541,-0.50574 -0.21198,-0.22707 -0.38779,-0.46144 -0.3907,-0.52083 -0.003,-0.0594 -0.13914,-0.27402 -0.30273,-0.47696 -0.16359,-0.20294 -0.36829,-0.50312 -0.45488,-0.66708 -0.0866,-0.16395 -0.20736,-0.37859 -0.26837,-0.47696 -0.11969,-0.19296 -0.11858,-0.19097 -0.89255,-1.60975 -1.21933,-2.2352 -1.35378,-3.3958 -0.46029,-3.97356 0.59643,-0.38567 2.24329,0.25155 2.24329,0.868 0,0.0852 0.0907,0.22387 0.20149,0.30808 0.11082,0.0842 0.34937,0.45297 0.53012,0.81947 0.18075,0.3665 0.43703,0.881 0.56952,1.14333 0.13249,0.26233 0.34362,0.77208 0.46919,1.13279 0.12556,0.3607 0.28426,0.69006 0.35266,0.73192 0.0684,0.0419 0.0807,0.14087 0.0272,0.22004 -0.0534,0.0792 -0.0387,0.25955 0.0328,0.40086 0.18907,0.3738 0.74141,3.15883 0.73292,3.69555 -0.011,0.69885 -0.51716,0.90101 -0.92374,0.36898 z m 0.30492,-1.67875 c -0.10532,-0.38388 -0.22898,-0.99309 -0.27482,-1.35379 -0.0458,-0.36071 -0.13136,-0.76314 -0.19005,-0.89431 -0.34418,-0.76907 -0.39963,-0.92832 -0.39963,-1.14771 0,-0.20387 -0.62273,-1.55562 -1.04984,-2.27883 -0.0673,-0.11388 -0.12227,-0.27605 -0.12227,-0.36037 0,-0.0843 -0.16558,-0.33992 -0.36796,-0.56801 -0.20238,-0.22808 -0.40499,-0.507 -0.45024,-0.61982 -0.0453,-0.11281 -0.23131,-0.23936 -0.41345,-0.28121 -0.18214,-0.0419 -0.33117,-0.12395 -0.33117,-0.18242 0,-0.20124 -0.76856,-0.11284 -0.88991,0.10236 -0.23663,0.4196 -0.28706,1.04351 -0.10385,1.28463 0.0985,0.12963 0.22332,0.42173 0.27739,0.64911 0.0541,0.22739 0.14377,0.49568 0.19932,0.59621 0.0555,0.10052 0.40092,0.7571 0.76749,1.45907 0.36658,0.70196 0.72391,1.30878 0.79409,1.34849 0.0702,0.0397 0.12759,0.15176 0.12759,0.24901 0,0.0972 0.12302,0.29529 0.27338,0.44011 0.15036,0.14482 0.31153,0.34379 0.35815,0.44217 0.0466,0.0984 0.49499,0.74227 0.9964,1.43088 l 0.91164,1.25203 0.0396,-0.43481 c 0.0218,-0.23915 -0.0465,-0.7489 -0.15187,-1.13279 z"
       id="path88" /><text
       xml:space="preserve"
       style="font-size:4.93889px;fill:#000000;fill-opacity:1;stroke:#000000;stroke-width:0.006;stroke-dasharray:none;stroke-dashoffset:0"
       x="60.992359"
       y="161.57033"
       id="text138"><tspan
         sodipodi:role="line"
         x="60.992359"
         y="161.57033"
         style="font-style:normal;font-variant:normal;font-weight:normal;font-stretch:normal;font-size:4.93889px;font-family:Arial;-inkscape-font-specification:Arial;fill:#000000;fill-opacity:1;stroke:#000000;stroke-width:0.006;stroke-dasharray:none;stroke-dashoffset:0;stroke-opacity:1"
         id="tspan139">PLAIN</tspan></text><text
       xml:space="preserve"
       style="font-style:normal;font-variant:normal;font-weight:normal;font-stretch:normal;font-size:4.9389px;font-family:Arial;-inkscape-font-specification:Arial;fill:#000000;fill-opacity:1;stroke:#000000;stroke-width:0.01412;stroke-dasharray:none;stroke-dashoffset:0"
       x="53.371517"
       y="171.93625"
       id="text140"><tspan
         sodipodi:role="line"
         id="tspan140"
         style="fill:#000000;fill-opacity:1;stroke-width:0.01412;stroke-dasharray:none;stroke-dashoffset:0"
         x="53.371517"
         y="171.93625">SLOTTED</tspan></text><text
       xml:space="preserve"
       style="font-style:normal;font-variant:normal;font-weight:normal;font-stretch:normal;font-size:4.9389px;font-family:Arial;-inkscape-font-specification:Arial;fill:#000000;fill-opacity:1;stroke:#000000;stroke-width:0.0141111;stroke-dasharray:0.0564446, 0.0141111;stroke-dashoffset:0"
       x="61.542397"
       y="183.06256"
       id="text141"><tspan
         sodipodi:role="line"
         id="tspan141"
         style="fill:#000000;fill-opacity:1;stroke-width:0.0141111;stroke-dasharray:0.0564446, 0.0141111;stroke-dashoffset:0"
         x="61.542397"
         y="183.06256">SPLIT</tspan></text><text
       xml:space="preserve"
       style="font-style:normal;font-variant:normal;font-weight:normal;font-stretch:normal;font-size:4.9389px;font-family:Arial;-inkscape-font-specification:Arial;fill:#000000;fill-opacity:1;stroke:#000000;stroke-width:0.0141111;stroke-dasharray:0.0564446, 0.0141111;stroke-dashoffset:0"
       x="65.540909"
       y="194.01501"
       id="text142"><tspan
         sodipodi:role="line"
         id="tspan142"
         style="fill:#000000;fill-opacity:1;stroke-width:0.0141111;stroke-dasharray:0.0564446, 0.0141111;stroke-dashoffset:0"
         x="65.540909"
         y="194.01501">ZAP</tspan></text><text
       xml:space="preserve"
       style="font-style:normal;font-variant:normal;font-weight:normal;font-stretch:normal;font-size:4.9389px;font-family:Arial;-inkscape-font-specification:Arial;fill:#000000;fill-opacity:1;stroke:#000000;stroke-width:0.0141111;stroke-dasharray:0.0564446, 0.0141111;stroke-dashoffset:0"
       x="54.588451"
       y="203.22899"
       id="text143"><tspan
         sodipodi:role="line"
         id="tspan143"
         style="fill:#000000;fill-opacity:1;stroke-width:0.0141111;stroke-dasharray:0.0564446, 0.0141111;stroke-dashoffset:0"
         x="54.588451"
         y="203.22899">FOWLER</tspan></text><text
       xml:space="preserve"
       style="font-style:normal;font-variant:normal;font-weight:normal;font-stretch:normal;font-size:4.9389px;font-family:Arial;-inkscape-font-specification:Arial;fill:#000000;fill-opacity:1;stroke:#000000;stroke-width:0.0141111;stroke-dasharray:0.0564446, 0.0141111;stroke-dashoffset:0"
       x="31.988138"
       y="212.96449"
       id="text144"><tspan
         sodipodi:role="line"
         id="tspan144"
         style="fill:#000000;fill-opacity:1;stroke-width:0.0141111;stroke-dasharray:0.0564446, 0.0141111;stroke-dashoffset:0"
         x="31.988138"
         y="212.96449">DOUBLE SLOTTED</tspan></text><text
       xml:space="preserve"
       style="font-style:normal;font-variant:normal;font-weight:normal;font-stretch:normal;font-size:4.9389px;font-family:Arial;-inkscape-font-specification:Arial;fill:#000000;fill-opacity:1;stroke:#000000;stroke-width:0.0141111;stroke-dasharray:0.0564446, 0.0141111;stroke-dashoffset:0"
       x="20.340281"
       y="221.48308"
       id="text145"><tspan
         sodipodi:role="line"
         id="tspan145"
         style="fill:#000000;fill-opacity:1;stroke-width:0.0141111;stroke-dasharray:0.0564446, 0.0141111;stroke-dashoffset:0"
         x="20.340281"
         y="221.48308">DOUBLE SLOTTED FLAP</tspan><tspan
         sodipodi:role="line"
         style="fill:#000000;fill-opacity:1;stroke-width:0.0141111;stroke-dasharray:0.0564446, 0.0141111;stroke-dashoffset:0"
         x="20.340281"
         y="227.65671"
         id="tspan146">LEADING EDGE SLAT</tspan></text></g></svg>
