<?xml version="1.0" encoding="utf-8"?>
<!DOCTYPE svg PUBLIC "-//W3C//DTD SVG 1.1//EN" "http://www.w3.org/Graphics/SVG/1.1/DTD/svg11.dtd">
<svg xmlns="http://www.w3.org/2000/svg" xmlns:xlink="http://www.w3.org/1999/xlink" version="1.1" x="0" y="0" width="360" height="245" viewBox="0 0 360 245">
<style type="text/css">
	.st0{fill:#C1272D;stroke:#000;stroke-width:2;}
	.st1{fill:#1B1464;}
	.st2{font-family:Liberation Sans,Arial;}
	.st3{font-size:21px;}
</style>
<symbol id="stator" viewBox="-52.1 -39 104.3 78">
	<path class="st0" d="M-50.7-2.1c32.7-33.7,61.3,4.3,100.8,38C40.4,7.9,19.5-14.2,8.4-24.7C1.3-31.4-43.1-60.8-50.7-2.1z"/>
</symbol>
<g id="diagram">
	
		<use xlink:href="#stator" width="104.3" height="78" x="-52.1" y="-39" transform="matrix(1 0 0 -1 155.4475 73.2325)"/>
	
		<use xlink:href="#stator" width="104.3" height="78" x="-52.1" y="-39" transform="matrix(1 0 0 -1 155.4475 132.0212)"/>
	
		<use xlink:href="#stator" width="104.3" height="78" x="-52.1" y="-39" transform="matrix(1 0 0 -1 155.4475 190.81)"/>
	
		<use xlink:href="#stator" width="104.3" height="78" x="-52.1" y="-39" transform="matrix(1 0 0 1 257.581 178.3857)"/>
	
		<use xlink:href="#stator" width="104.3" height="78" x="-52.1" y="-39" transform="matrix(1 0 0 1 257.581 119.5969)"/>
	
		<use xlink:href="#stator" width="104.3" height="78" x="-52.1" y="-39" transform="matrix(1 0 0 1 257.581 60.8081)"/>
	
			<path class="st1" d="M95.7,105.8c0,0,0.2,0.4,0.6,1c0.2,0.4,0.4,0.6,0.6,1c0.2,0.4,0.5,0.8,0.8,1.3c0.3,0.5,0.7,0.9,1.1,1.5     c0.4,0.5,0.9,1,1.4,1.5c0.5,0.5,1,1,1.6,1.6c0.6,0.5,1.2,1,1.8,1.5c0.6,0.5,1.3,0.9,1.9,1.4c0.7,0.4,1.3,0.8,2,1.2     c0.7,0.4,1.3,0.7,1.9,1c0.6,0.3,1.2,0.6,1.8,0.8c0.6,0.2,1.1,0.4,1.5,0.6c0.5,0.2,0.9,0.3,1.2,0.4c0.7,0.2,1.1,0.4,1.1,0.4     l-0.6,2.4c0,0-0.4-0.1-1.2-0.2c-0.4-0.1-0.8-0.2-1.3-0.3c-0.5-0.1-1.1-0.2-1.7-0.4c-0.6-0.2-1.3-0.3-2-0.5     c-0.7-0.2-1.5-0.4-2.3-0.7c-0.8-0.2-1.6-0.5-2.4-0.8c-0.8-0.3-1.6-0.6-2.5-1c-0.8-0.3-1.6-0.8-2.4-1.1c-0.8-0.4-1.6-0.8-2.3-1.2     c-1.5-0.9-2.8-1.7-4-2.6c-0.6-0.4-1.1-0.8-1.6-1.2c-0.5-0.4-0.8-0.7-1.2-0.9c-0.6-0.5-0.9-0.7-0.9-0.7L95.7,105.8z"/>

				<polygon class="st1" points="128.6,124.1 107.7,129 113.6,121.7 110.2,113     "/>
			
			<path class="st1" d="M95.7,164.6c0,0,0.2,0.4,0.6,1c0.2,0.4,0.4,0.6,0.6,1c0.2,0.4,0.5,0.8,0.8,1.3c0.3,0.5,0.7,0.9,1.1,1.5     c0.4,0.5,0.9,1,1.4,1.5c0.5,0.5,1,1,1.6,1.6c0.6,0.5,1.2,1,1.8,1.5c0.6,0.5,1.3,0.9,1.9,1.4c0.7,0.4,1.3,0.8,2,1.2     c0.7,0.4,1.3,0.7,1.9,1c0.6,0.3,1.2,0.6,1.8,0.8c0.6,0.2,1.1,0.4,1.5,0.6c0.5,0.2,0.9,0.3,1.2,0.4c0.7,0.2,1.1,0.4,1.1,0.4     l-0.6,2.4c0,0-0.4-0.1-1.2-0.2c-0.4-0.1-0.8-0.2-1.3-0.3c-0.5-0.1-1.1-0.2-1.7-0.4c-0.6-0.2-1.3-0.3-2-0.5     c-0.7-0.2-1.5-0.4-2.3-0.7c-0.8-0.2-1.6-0.5-2.4-0.8c-0.8-0.3-1.6-0.6-2.5-1c-0.8-0.3-1.6-0.8-2.4-1.1c-0.8-0.4-1.6-0.8-2.3-1.2     c-1.5-0.9-2.8-1.7-4-2.6c-0.6-0.4-1.1-0.8-1.6-1.2c-0.5-0.4-0.8-0.7-1.2-0.9c-0.6-0.5-0.9-0.7-0.9-0.7L95.7,164.6z"/>
			
				<polygon class="st1" points="128.6,183 107.7,187.9 113.6,180.6 110.2,171.8     "/>
			
	
			<path class="st1" d="M194.1,139.3c0,0,0.3-0.3,0.9-0.7c0.3-0.3,0.7-0.6,1.2-0.9c0.5-0.4,1-0.8,1.6-1.2c1.1-0.8,2.5-1.7,4-2.6     c0.7-0.4,1.5-0.8,2.3-1.2c0.8-0.4,1.6-0.8,2.4-1.1c0.8-0.4,1.6-0.7,2.5-1c0.8-0.3,1.6-0.6,2.4-0.8c0.8-0.3,1.5-0.5,2.3-0.7     c0.7-0.2,1.4-0.3,2-0.5c0.6-0.2,1.2-0.3,1.7-0.4c0.5-0.1,1-0.2,1.3-0.3c0.7-0.1,1.2-0.2,1.2-0.2l0.6,2.4c0,0-0.4,0.1-1.1,0.4     c-0.3,0.1-0.8,0.2-1.2,0.4c-0.5,0.2-1,0.4-1.5,0.6c-0.6,0.2-1.2,0.5-1.8,0.8c-0.6,0.3-1.3,0.6-1.9,1c-0.7,0.3-1.3,0.8-2,1.2     c-0.6,0.4-1.3,0.9-1.9,1.4c-0.6,0.5-1.2,1-1.8,1.5c-0.6,0.5-1.1,1-1.6,1.6c-0.5,0.5-1,1-1.4,1.5c-0.4,0.5-0.8,1-1.1,1.5     c-0.3,0.5-0.6,0.9-0.8,1.3c-0.2,0.4-0.4,0.7-0.6,1c-0.4,0.7-0.6,1-0.6,1L194.1,139.3z"/>
			
				<polygon class="st1" points="234.1,126.9 215.7,138.1 219.1,129.3 213.2,122     "/>
		
			<path class="st1" d="M194.1,80.5c0,0,0.3-0.3,0.9-0.7c0.3-0.3,0.7-0.6,1.2-0.9c0.5-0.4,1-0.8,1.6-1.2c1.1-0.8,2.5-1.7,4-2.6     c0.7-0.4,1.5-0.8,2.3-1.2c0.8-0.4,1.6-0.8,2.4-1.1c0.8-0.4,1.6-0.7,2.5-1c0.8-0.3,1.6-0.6,2.4-0.8c0.8-0.3,1.5-0.5,2.3-0.7     c0.7-0.2,1.4-0.3,2-0.5c0.6-0.2,1.2-0.3,1.7-0.4c0.5-0.1,1-0.2,1.3-0.3c0.7-0.1,1.2-0.2,1.2-0.2l0.6,2.4c0,0-0.4,0.1-1.1,0.4     c-0.3,0.1-0.8,0.2-1.2,0.4c-0.5,0.2-1,0.4-1.5,0.6c-0.6,0.2-1.2,0.5-1.8,0.8c-0.6,0.3-1.3,0.6-1.9,1c-0.7,0.3-1.3,0.8-2,1.2     c-0.6,0.4-1.3,0.9-1.9,1.4c-0.6,0.5-1.2,1-1.8,1.5c-0.6,0.5-1.1,1-1.6,1.6c-0.5,0.5-1,1-1.4,1.5c-0.4,0.5-0.8,1-1.1,1.5     c-0.3,0.5-0.6,0.9-0.8,1.3c-0.2,0.4-0.4,0.7-0.6,1c-0.4,0.7-0.6,1-0.6,1L194.1,80.5z"/>
				<polygon class="st1" points="234.1,68.1 215.7,79.2 219.1,70.4 213.2,63.2     "/>

			<path class="st1" d="M314.3,165.2c0,0,0.4,0.2,1,0.6c0.4,0.2,0.8,0.4,1.3,0.7c0.5,0.3,1.1,0.6,1.7,1c1.2,0.7,2.6,1.6,4,2.6     c0.7,0.5,1.4,1,2.1,1.6c0.7,0.6,1.4,1.1,2,1.7c0.7,0.6,1.3,1.2,1.9,1.8c0.6,0.6,1.2,1.2,1.7,1.8c0.6,0.6,1.1,1.2,1.5,1.8     c0.5,0.6,0.9,1.1,1.3,1.6c0.4,0.5,0.7,1,1,1.4c0.3,0.4,0.6,0.8,0.8,1.1c0.4,0.6,0.7,1,0.7,1l-2,1.5c0,0-0.3-0.3-0.8-0.8     c-0.2-0.3-0.5-0.6-0.9-0.9c-0.4-0.3-0.7-0.7-1.2-1.2c-0.5-0.4-0.9-0.9-1.5-1.3c-0.5-0.4-1.1-0.9-1.7-1.3     c-0.6-0.5-1.2-0.9-1.9-1.3c-0.7-0.4-1.3-0.8-2-1.2c-0.7-0.4-1.4-0.7-2.1-1.1c-0.7-0.3-1.4-0.6-2.1-0.8c-0.7-0.3-1.3-0.4-2-0.6     c-0.6-0.1-1.2-0.3-1.8-0.4c-0.6-0.1-1.1-0.2-1.5-0.2c-0.4-0.1-0.8-0.1-1.2-0.1c-0.7-0.1-1.2-0.1-1.2-0.1L314.3,165.2z"/>

				<polygon class="st1" points="341.8,196.7 324.2,184.4 333.6,183.9 337.8,175.5     "/>
	
			<path class="st1" d="M314.3,108.2c0,0,0.4,0.2,1,0.6c0.4,0.2,0.8,0.4,1.3,0.7c0.5,0.3,1.1,0.6,1.7,1c1.2,0.7,2.6,1.6,4,2.6     c0.7,0.5,1.4,1,2.1,1.6c0.7,0.6,1.4,1.1,2,1.7c0.7,0.6,1.3,1.2,1.9,1.8c0.6,0.6,1.2,1.2,1.7,1.8c0.6,0.6,1.1,1.2,1.5,1.8     c0.5,0.6,0.9,1.1,1.3,1.6c0.4,0.5,0.7,1,1,1.4c0.3,0.4,0.6,0.8,0.8,1.1c0.4,0.6,0.7,1,0.7,1l-2,1.5c0,0-0.3-0.3-0.8-0.8     c-0.2-0.3-0.5-0.6-0.9-0.9c-0.4-0.3-0.7-0.7-1.2-1.2c-0.5-0.4-0.9-0.9-1.5-1.3c-0.5-0.4-1.1-0.9-1.7-1.3     c-0.6-0.5-1.2-0.9-1.9-1.3c-0.7-0.4-1.3-0.8-2-1.2c-0.7-0.4-1.4-0.7-2.1-1.1c-0.7-0.3-1.4-0.6-2.1-0.8c-0.7-0.3-1.3-0.4-2-0.6     c-0.6-0.1-1.2-0.3-1.8-0.4c-0.6-0.1-1.1-0.2-1.5-0.2c-0.4-0.1-0.8-0.1-1.2-0.1c-0.7-0.1-1.2-0.1-1.2-0.1L314.3,108.2z"/>
				<polygon class="st1" points="341.8,139.6 324.2,127.4 333.6,126.9 337.8,118.5     "/>
</g>	
<g id="text">
	<switch><text transform="matrix(1 0 0 1 120 35)" class="st2 st3" id="trsvg5-ca" systemLanguage="ca"><tspan id="trsvg1-ca">Estàtor</tspan></text><text transform="matrix(1 0 0 1 120 35)" class="st2 st3" id="trsvg5"><tspan id="trsvg1">Stator</tspan></text></switch>
	<switch><text transform="matrix(1 0 0 1 220 221)" class="st2 st3" id="trsvg6-ca" systemLanguage="ca"><tspan id="trsvg2-ca">Rotor</tspan></text><text transform="matrix(1 0 0 1 220 221)" class="st2 st3" id="trsvg6"><tspan id="trsvg2">Rotor</tspan></text></switch>
	<switch><text transform="matrix(1 0 0 1 18 146)" id="trsvg7-ca" systemLanguage="ca"><tspan x="0" y="0" class="st2 st3" id="trsvg3-ca">Flux</tspan>
	<tspan x="0" y="25" class="st2 st3" id="trsvg4-ca">entrant</tspan>
	</text><text transform="matrix(1 0 0 1 18 146)" id="trsvg7"><tspan x="0" y="0" class="st2 st3" id="trsvg3">Entering</tspan>
	<tspan x="0" y="25" class="st2 st3" id="trsvg4">fluid</tspan>
	</text></switch>
</g>
</svg>
